<svg xmlns="http://www.w3.org/2000/svg" viewBox="0 0 300 400" width="300" height="400">
  <defs>
    <linearGradient id="artistGrad" x1="0%" y1="0%" x2="0%" y2="100%">
      <stop offset="0%" style="stop-color:#ffd700;stop-opacity:0.8"/>
      <stop offset="50%" style="stop-color:#c9a227;stop-opacity:0.6"/>
      <stop offset="100%" style="stop-color:#1a1a40;stop-opacity:0.3"/>
    </linearGradient>
    <filter id="glow">
      <feGaussianBlur stdDeviation="3" result="coloredBlur"/>
      <feMerge>
        <feMergeNode in="coloredBlur"/>
        <feMergeNode in="SourceGraphic"/>
      </feMerge>
    </filter>
  </defs>
  <rect width="300" height="400" fill="#0a0a20"/>
  <ellipse cx="150" cy="350" rx="80" ry="30" fill="url(#artistGrad)" opacity="0.5"/>
  <path d="M150 80 Q120 120 100 200 Q80 300 70 380 L230 380 Q220 300 200 200 Q180 120 150 80" fill="url(#artistGrad)" filter="url(#glow)"/>
  <circle cx="150" cy="70" r="35" fill="url(#artistGrad)" filter="url(#glow)"/>
  <path d="M115 60 Q90 100 70 180 Q60 220 80 250" stroke="#ffd700" stroke-width="2" fill="none" opacity="0.6"/>
  <path d="M185 60 Q210 100 230 180 Q240 220 220 250" stroke="#ffd700" stroke-width="2" fill="none" opacity="0.6"/>
  <path d="M120 45 L130 25 L140 40 L150 15 L160 40 L170 25 L180 45" stroke="#ffd700" stroke-width="2" fill="none" filter="url(#glow)"/>
  <circle cx="60" cy="100" r="2" fill="#ffd700"/>
  <circle cx="240" cy="120" r="3" fill="#ffd700"/>
  <circle cx="80" cy="200" r="2" fill="#ffd700"/>
  <circle cx="220" cy="220" r="2" fill="#ffd700"/>
</svg>